<svg width="24" height="24" viewBox="0 0 24 24" fill="none" xmlns="http://www.w3.org/2000/svg">
<path d="M21.999 8.00012C21.999 7.81912 21.95 7.64112 21.856 7.48512L19.147 2.97012C18.788 2.37212 18.131 2.00012 17.433 2.00012H6.56499C5.86699 2.00012 5.20999 2.37212 4.85099 2.97112L2.14199 7.48512C2.04799 7.64112 1.99899 7.81912 1.99899 8.00012C1.99899 9.00512 2.38499 9.91412 2.99899 10.6181V11.0001V13.0001V20.0001C2.99899 20.5531 3.44599 21.0001 3.99899 21.0001H11.999C12.552 21.0001 12.999 20.5531 12.999 20.0001V15.0001H16.999V20.0001C16.999 20.5531 17.446 21.0001 17.999 21.0001H19.999C20.552 21.0001 20.999 20.5531 20.999 20.0001V13.0001V11.0001V10.6181C21.613 9.91412 21.999 9.00512 21.999 8.00012ZM19.983 8.25112C19.859 9.23612 19.017 10.0001 17.999 10.0001C16.896 10.0001 15.999 9.10312 15.999 8.00012C15.999 7.93212 15.974 7.87212 15.96 7.80812L15.98 7.80412L15.219 4.00012H17.433L19.983 8.25112ZM10.006 8.06512L10.818 4.00012H13.179L13.992 8.06512C13.957 9.13812 13.079 10.0001 11.999 10.0001C10.919 10.0001 10.041 9.13812 10.006 8.06512ZM6.56499 4.00012H8.77899L8.01899 7.80412L8.03899 7.80812C8.02399 7.87212 7.99899 7.93212 7.99899 8.00012C7.99899 9.10312 7.10199 10.0001 5.99899 10.0001C4.98099 10.0001 4.13899 9.23612 4.01499 8.25112L6.56499 4.00012ZM9.99899 16.0001H5.99899V13.0001H9.99899V16.0001Z" fill="#849AB0"/>
</svg>
