<svg width="24" height="24" viewBox="0 0 24 24" fill="none" xmlns="http://www.w3.org/2000/svg">
<path d="M14 2.00006H6C4.896 2.00006 4 2.89606 4 4.00006V20.0001C4 21.1041 4.896 22.0001 6 22.0001H18C19.104 22.0001 20 21.1041 20 20.0001V8.00006L14 2.00006ZM9.446 17.4121C9.721 17.4121 10.027 17.3511 10.208 17.2801L10.346 17.9931C10.178 18.0771 9.8 18.1671 9.309 18.1671C7.912 18.1671 7.192 17.2981 7.192 16.1461C7.191 14.7681 8.175 14.0001 9.398 14.0001C9.872 14.0001 10.231 14.0961 10.393 14.1801L10.207 14.9061C10.02 14.8281 9.763 14.7571 9.439 14.7571C8.713 14.7571 8.149 15.1951 8.149 16.0941C8.15 16.9021 8.631 17.4121 9.446 17.4121ZM11.937 18.1671C11.476 18.1671 11.02 18.0481 10.792 17.9221L10.978 17.1661C11.224 17.2921 11.602 17.4181 11.992 17.4181C12.412 17.4181 12.634 17.2441 12.634 16.9801C12.634 16.7281 12.442 16.5841 11.956 16.4101C11.284 16.1761 10.847 15.8051 10.847 15.2171C10.847 14.5281 11.422 14.0001 12.376 14.0001C12.831 14.0001 13.167 14.0961 13.407 14.2031L13.203 14.9411C13.041 14.8631 12.754 14.7491 12.357 14.7491C11.961 14.7491 11.77 14.9301 11.77 15.1391C11.77 15.3971 11.998 15.5111 12.519 15.7091C13.233 15.9731 13.569 16.3451 13.569 16.9141C13.568 17.5921 13.046 18.1671 11.937 18.1671ZM15.177 18.1671C14.716 18.1671 14.26 18.0481 14.032 17.9221L14.218 17.1661C14.464 17.2921 14.842 17.4181 15.232 17.4181C15.652 17.4181 15.874 17.2441 15.874 16.9801C15.874 16.7281 15.682 16.5841 15.196 16.4101C14.524 16.1761 14.087 15.8051 14.087 15.2171C14.087 14.5281 14.662 14.0001 15.616 14.0001C16.071 14.0001 16.407 14.0961 16.647 14.2031L16.443 14.9411C16.281 14.8631 15.994 14.7491 15.597 14.7491C15.201 14.7491 15.01 14.9301 15.01 15.1391C15.01 15.3971 15.238 15.5111 15.759 15.7091C16.473 15.9731 16.809 16.3451 16.809 16.9141C16.809 17.5921 16.286 18.1671 15.177 18.1671ZM14 9.00006C13.447 9.00006 13 9.00006 13 9.00006V4.00006L18 9.00006H14Z" fill="#849AB0"/>
</svg>
