<svg width="24" height="24" viewBox="0 0 24 24" fill="none" xmlns="http://www.w3.org/2000/svg">
<path d="M21 4H5H4H2V6H4H4.3L7.821 15.683C8.106 16.471 8.862 17 9.7 17H18V15H9.7L8.972 13H18C18.4 13 18.762 12.762 18.919 12.394L21.919 5.394C22.052 5.085 22.02 4.731 21.835 4.45C21.649 4.169 21.336 4 21 4Z" fill="#849AB0"/>
<path d="M10.5 21C11.3284 21 12 20.3284 12 19.5C12 18.6716 11.3284 18 10.5 18C9.67157 18 9 18.6716 9 19.5C9 20.3284 9.67157 21 10.5 21Z" fill="#495057"/>
<path d="M16.5 21C17.3284 21 18 20.3284 18 19.5C18 18.6716 17.3284 18 16.5 18C15.6716 18 15 18.6716 15 19.5C15 20.3284 15.6716 21 16.5 21Z" fill="#495057"/>
</svg>
