<svg width="24" height="24" viewBox="0 0 24 24" fill="none" xmlns="http://www.w3.org/2000/svg">
<path d="M21.484 7.12511L12.462 2.12511C12.161 1.95911 11.795 1.95911 11.494 2.12511L2.516 7.08511C2.198 7.26111 2.001 7.59511 2 7.95811C1.999 8.32011 2.195 8.65611 2.513 8.83311L11.535 13.8731C11.687 13.9581 11.854 14.0001 12.022 14.0001C12.19 14.0001 12.357 13.9581 12.508 13.8741L21.486 8.87411C21.804 8.69711 22 8.36211 22 7.99911C22 7.63611 21.803 7.30211 21.484 7.12511Z" fill="#849AB0"/>
<path d="M12 15.8561L3.48501 11.1261L2.51401 12.8741L11.514 17.8741C11.665 17.9581 11.833 18.0001 12 18.0001C12.167 18.0001 12.335 17.9581 12.485 17.8741L21.485 12.8741L20.514 11.1261L12 15.8561Z" fill="#495057"/>
<path d="M12 19.8561L3.48501 15.1261L2.51401 16.8741L11.514 21.8741C11.665 21.9581 11.833 22.0001 12 22.0001C12.167 22.0001 12.335 21.9581 12.485 21.8741L21.485 16.8741L20.514 15.1261L12 19.8561Z" fill="#849AB0"/>
</svg>
