<svg width="570" height="563" viewBox="0 0 570 563" fill="none" xmlns="http://www.w3.org/2000/svg">
<path opacity="0.5" d="M303.916 196.5C256.35 170.174 217.009 194.81 210.05 251.551C208.842 261.417 216.721 274.389 226.269 279.677L381.505 365.578C391.053 370.866 398.933 366.614 397.783 355.44C390.823 290.959 351.482 222.772 303.916 196.5Z" fill="url(#paint0_linear)"/>
<path opacity="0.5" d="M356.946 122.753C356.946 161.943 333.019 180.475 303.513 164.123C274.065 147.826 250.138 102.858 250.138 63.6685C250.138 24.4785 274.065 5.9464 303.571 22.2983C333.077 38.5956 356.946 83.6178 356.946 122.753Z" fill="url(#paint1_linear)"/>
<path opacity="0.07" d="M326.923 180.148C279.357 153.822 240.016 178.459 233.056 235.2C231.848 245.065 239.728 258.038 249.276 263.325L404.512 349.227C414.06 354.514 421.939 350.262 420.789 339.088C413.83 274.608 374.488 206.42 326.923 180.148Z" fill="url(#paint2_linear)"/>
<path opacity="0.07" d="M379.952 106.401C379.952 145.591 356.026 164.123 326.52 147.772C297.071 131.474 273.145 86.5066 273.145 47.3166C273.145 8.12665 297.072 -10.4055 326.577 5.9464C356.083 22.2438 379.952 67.2659 379.952 106.401Z" fill="url(#paint3_linear)"/>
<path opacity="0.2" d="M107.095 216.504L0 157.91V210.781L107.153 269.375L107.095 216.504Z" fill="url(#paint4_linear)"/>
<path d="M21.7415 187.561C21.7415 191.922 19.0382 193.938 15.6447 192.14C12.3088 190.286 9.54803 185.272 9.54803 180.911C9.54803 176.551 12.2513 174.534 15.6447 176.333C19.0382 178.186 21.7415 183.201 21.7415 187.561Z" fill="#F2994A"/>
<path opacity="0.15" d="M27.2629 185.926L62.2903 205.058V212.47L27.2629 193.339V185.926Z" fill="white"/>
<path opacity="0.15" d="M27.4354 200.861L96.0522 238.415V245.828L27.4354 208.273V200.861Z" fill="white"/>
<path opacity="0.05" d="M276.193 269.811L383.806 328.678V548.283L276.193 489.471V269.811Z" fill="url(#paint5_linear)"/>
<path opacity="0.3" d="M365.861 343.394L258.191 284.528V504.133L365.803 563L365.861 343.394ZM293.275 317.776L329.223 337.399V346.12L293.275 326.77V317.776Z" fill="url(#paint6_linear)"/>
<path opacity="0.15" d="M268.601 423.682L355.048 470.939V478.352L268.601 431.095V423.682Z" fill="white"/>
<path opacity="0.15" d="M274.698 441.451L349.066 482.113V489.526L274.698 448.864V441.451Z" fill="white"/>
<path d="M336.068 405.204C336.068 387.817 325.312 367.813 312.083 360.564C298.855 353.315 288.099 361.545 288.099 378.932C288.099 396.32 298.855 416.324 312.083 423.573C325.312 430.822 336.068 422.592 336.068 405.204Z" fill="url(#paint7_linear)"/>
<path opacity="0.05" d="M142.18 93.0473L249.793 151.914V371.52L142.18 312.653V93.0473Z" fill="url(#paint8_linear)"/>
<path opacity="0.3" d="M231.848 166.794L124.178 107.928V327.533L231.791 386.4L231.848 166.794ZM159.263 141.176L195.21 160.799V169.52L159.263 150.17V141.176Z" fill="url(#paint9_linear)"/>
<path opacity="0.15" d="M134.588 246.864L221.035 294.121V301.534L134.588 254.277V246.864Z" fill="white"/>
<path opacity="0.15" d="M140.627 264.687L214.938 305.349V312.762L140.57 272.1L140.627 264.687Z" fill="white"/>
<path d="M202.055 228.441C202.055 211.053 191.299 191.05 178.07 183.8C164.842 176.551 154.086 184.781 154.086 202.169C154.086 219.556 164.842 239.56 178.07 246.809C191.299 254.059 202.055 245.828 202.055 228.441Z" fill="#F2C94C"/>
<path opacity="0.3" d="M202.055 350.916L30.8863 257.275L30.9438 341.814L186.985 427.17L202.112 448.373L202.055 350.916Z" fill="url(#paint10_linear)"/>
<path d="M12.6536 290.251V267.304L77.2443 302.624V325.571L12.6536 290.251Z" fill="#F2994A"/>
<path opacity="0.15" d="M158.055 347.428L120.554 326.934V334.346L158.055 354.841V347.428Z" fill="white"/>
<path opacity="0.15" d="M158.055 362.308L85.757 322.791V330.204L158.055 369.721V362.308Z" fill="white"/>
<path opacity="0.15" d="M158.055 377.134L70.5152 329.223V336.636L158.112 384.547L158.055 377.134Z" fill="white"/>
<path d="M167.315 360.237C167.315 367.214 171.686 375.226 177.035 378.169C182.384 381.113 186.755 377.842 186.755 370.866C186.755 363.889 182.384 355.876 177.035 352.933C171.629 349.99 167.257 353.26 167.315 360.237Z" fill="#F2994A"/>
<path opacity="0.2" d="M67.8693 97.2443C71.3202 99.0975 74.081 103.676 74.081 107.437V124.061L85.6993 130.384C89.1503 132.237 91.911 136.816 91.911 140.577C91.911 144.338 89.1503 145.864 85.6993 144.011L74.081 137.688V154.312C74.081 158.073 71.3202 159.599 67.8693 157.746C64.4183 155.893 61.6575 151.314 61.6575 147.554V130.929L50.0392 124.606C46.5883 122.753 43.8275 118.175 43.8275 114.414C43.8275 110.653 46.5883 109.127 50.0392 110.98L61.6575 117.303V100.678C61.6575 96.9172 64.4183 95.3911 67.8693 97.2443Z" fill="url(#paint11_linear)"/>
<path d="M534.661 326.004C534.661 332.981 539.033 340.993 544.382 343.936C549.731 346.88 554.102 343.609 554.102 336.633C554.102 329.656 549.731 321.643 544.382 318.7C538.975 315.757 534.604 319.027 534.661 326.004Z" fill="url(#paint12_linear)"/>
<path opacity="0.15" d="M525.401 342.901L437.862 294.99V302.403L525.459 350.314L525.401 342.901Z" fill="white"/>
<path opacity="0.15" d="M525.401 328.075L453.103 288.558V295.971L525.401 335.488V328.075Z" fill="white"/>
<path opacity="0.15" d="M525.401 313.195L487.901 292.701V300.113L525.401 320.608V313.195Z" fill="white"/>
<path d="M380 256.018V233.071L444.591 268.391V291.338L380 256.018Z" fill="url(#paint13_linear)"/>
<path opacity="0.3" d="M569.401 316.683L398.233 223.042L398.29 307.581L554.332 392.937L569.459 414.14L569.401 316.683Z" fill="url(#paint14_linear)"/>
<path opacity="0.2" d="M483.186 378.519C486.636 380.372 489.397 384.951 489.397 388.712V405.336L501.016 411.659C504.467 413.512 507.227 418.091 507.227 421.852C507.227 425.613 504.467 427.139 501.016 425.286L489.397 418.963V435.587C489.397 439.348 486.636 440.874 483.186 439.021C479.735 437.168 476.974 432.589 476.974 428.829V412.204L465.355 405.881C461.905 404.028 459.144 399.45 459.144 395.689C459.144 391.928 461.905 390.402 465.355 392.255L476.974 398.578V381.953C476.974 378.192 479.735 376.666 483.186 378.519Z" fill="url(#paint15_linear)"/>
<path opacity="0.15" d="M474.887 200.861L543.504 238.415V245.828L474.887 208.273V200.861Z" fill="white"/>
<path opacity="0.15" d="M474.715 185.926L509.742 205.058V212.47L474.715 193.339V185.926Z" fill="white"/>
<path opacity="0.2" d="M554.547 216.504L447.452 157.91V210.781L554.605 269.375L554.547 216.504Z" fill="url(#paint16_linear)"/>
<defs>
<linearGradient id="paint0_linear" x1="500.182" y1="153.559" x2="314.299" y2="296.643" gradientUnits="userSpaceOnUse">
<stop stop-color="white"/>
<stop offset="1" stop-color="white" stop-opacity="0"/>
</linearGradient>
<linearGradient id="paint1_linear" x1="401.719" y1="25.35" x2="215.836" y2="168.434" gradientUnits="userSpaceOnUse">
<stop stop-color="white"/>
<stop offset="1" stop-color="white" stop-opacity="0"/>
</linearGradient>
<linearGradient id="paint2_linear" x1="523.189" y1="137.207" x2="337.306" y2="280.291" gradientUnits="userSpaceOnUse">
<stop stop-color="white"/>
<stop offset="1" stop-color="white" stop-opacity="0"/>
</linearGradient>
<linearGradient id="paint3_linear" x1="424.726" y1="8.99815" x2="238.843" y2="152.083" gradientUnits="userSpaceOnUse">
<stop stop-color="white"/>
<stop offset="1" stop-color="white" stop-opacity="0"/>
</linearGradient>
<linearGradient id="paint4_linear" x1="65.6346" y1="193.825" x2="43.3671" y2="234.534" gradientUnits="userSpaceOnUse">
<stop stop-color="white"/>
<stop offset="1" stop-color="white" stop-opacity="0"/>
</linearGradient>
<linearGradient id="paint5_linear" x1="392.504" y1="306.487" x2="269.684" y2="531.024" gradientUnits="userSpaceOnUse">
<stop stop-color="white"/>
<stop offset="1" stop-color="white" stop-opacity="0"/>
</linearGradient>
<linearGradient id="paint6_linear" x1="374.504" y1="321.177" x2="251.684" y2="545.714" gradientUnits="userSpaceOnUse">
<stop stop-color="white"/>
<stop offset="1" stop-color="white" stop-opacity="0"/>
</linearGradient>
<linearGradient id="paint7_linear" x1="314.049" y1="351.048" x2="314.049" y2="432.772" gradientUnits="userSpaceOnUse">
<stop stop-color="#F44881"/>
<stop offset="1" stop-color="#EC454F" stop-opacity="0.97"/>
</linearGradient>
<linearGradient id="paint8_linear" x1="258.487" y1="129.714" x2="135.667" y2="354.251" gradientUnits="userSpaceOnUse">
<stop stop-color="white"/>
<stop offset="1" stop-color="white" stop-opacity="0"/>
</linearGradient>
<linearGradient id="paint9_linear" x1="240.491" y1="144.577" x2="117.671" y2="369.113" gradientUnits="userSpaceOnUse">
<stop stop-color="white"/>
<stop offset="1" stop-color="white" stop-opacity="0"/>
</linearGradient>
<linearGradient id="paint10_linear" x1="164.727" y1="317.059" x2="80.0079" y2="387.055" gradientUnits="userSpaceOnUse">
<stop stop-color="white"/>
<stop offset="1" stop-color="white" stop-opacity="0"/>
</linearGradient>
<linearGradient id="paint11_linear" x1="79.8776" y1="118.496" x2="51.0204" y2="142.527" gradientUnits="userSpaceOnUse">
<stop stop-color="white"/>
<stop offset="1" stop-color="white" stop-opacity="0"/>
</linearGradient>
<linearGradient id="paint12_linear" x1="545.178" y1="314.857" x2="545.178" y2="347.653" gradientUnits="userSpaceOnUse">
<stop stop-color="#6EDCC4"/>
<stop offset="1" stop-color="#1AAB8B"/>
</linearGradient>
<linearGradient id="paint13_linear" x1="414.942" y1="227.198" x2="414.942" y2="296.94" gradientUnits="userSpaceOnUse">
<stop stop-color="#6EDCC4"/>
<stop offset="1" stop-color="#1AAB8B"/>
</linearGradient>
<linearGradient id="paint14_linear" x1="532.074" y1="282.826" x2="447.354" y2="352.822" gradientUnits="userSpaceOnUse">
<stop stop-color="white"/>
<stop offset="1" stop-color="white" stop-opacity="0"/>
</linearGradient>
<linearGradient id="paint15_linear" x1="495.194" y1="399.771" x2="466.337" y2="423.802" gradientUnits="userSpaceOnUse">
<stop stop-color="white"/>
<stop offset="1" stop-color="white" stop-opacity="0"/>
</linearGradient>
<linearGradient id="paint16_linear" x1="513.087" y1="193.825" x2="490.819" y2="234.534" gradientUnits="userSpaceOnUse">
<stop stop-color="white"/>
<stop offset="1" stop-color="white" stop-opacity="0"/>
</linearGradient>
</defs>
</svg>
