<svg width="24" height="24" viewBox="0 0 24 24" fill="none" xmlns="http://www.w3.org/2000/svg">
<g clip-path="url(#clip0)">
<path d="M23.2872 4.9035L12.4872 0.1035C12.1752 -0.0345 11.8236 -0.0345 11.5116 0.1035L0.7116 4.9035C0.6876 4.9143 0.6708 4.9323 0.6468 4.9455C0.6132 4.9623 0.5772 4.9731 0.546 4.9935C0.5196 5.0115 0.4992 5.0343 0.474 5.0535C0.4404 5.0787 0.408 5.1063 0.378 5.1351C0.3288 5.1819 0.2856 5.2323 0.246 5.2863C0.222 5.3199 0.1968 5.3499 0.1752 5.3835C0.138 5.4471 0.1104 5.5131 0.0839999 5.5815C0.0731999 5.6139 0.0564 5.6439 0.0468 5.6763C0.018 5.7807 0 5.8887 0 6.0003V18.0003C0 18.4755 0.2784 18.9039 0.7128 19.0971L11.5128 23.8971C11.6688 23.9667 11.8344 24.0003 12 24.0003C12.1668 24.0003 12.3276 23.9535 12.4824 23.8851L12.4872 23.8971L23.2872 19.0971C23.7216 18.9039 24 18.4755 24 18.0003V6.0003C24 5.5251 23.7216 5.0967 23.2872 4.9035ZM12 2.5143L19.8456 6.0003L12 9.4863L10.4304 8.7891L4.1556 6.0003L12 2.5143ZM13.2 20.9535V11.5803L21.6 7.8471V17.2215L13.2 20.9535Z" fill="white"/>
</g>
<defs>
<clipPath id="clip0">
<rect width="24" height="24" fill="white"/>
</clipPath>
</defs>
</svg>
